<svg xmlns="http://www.w3.org/2000/svg" viewBox="0 0 107.49 9.12"><defs><style>.cls-1{fill:#fff;}</style></defs><g id="Layer_2" data-name="Layer 2"><g id="Layer_1-2" data-name="Layer 1"><path class="cls-1" d="M1.94,9.12,1,2V9.12H0V0H1.67l.85,7.36L3.37,0h1.7V9.12H4V2l-.9,7.15Z"/><path class="cls-1" d="M9.36,6.76,9.13,9.12H8L9.07,0h1.66l1.11,9.12h-1.2l-.23-2.36Zm.53-5.57L9.44,5.78h.89Z"/><path class="cls-1" d="M14.75,0h2.66l.72.72V4.51l-.64.64.72,4H17.1l-.71-3.89H15.9V9.12H14.75ZM17,4.05V1.2L16.74,1H15.9V4.29h.84Z"/><path class="cls-1" d="M23.27,1.2,23,1h-.42l-.24.24V3.77l.24.24h1.12l.72.72V8.4l-.72.72H21.91l-.72-.72V6.49h1.15V7.92l.24.24h.48l.24-.24V5.23L23.06,5H21.94l-.72-.72V.72L21.94,0H23.7l.72.72V2.64H23.27Z"/><path class="cls-1" d="M31.86,0H33V9.12H31.86Z"/><path class="cls-1" d="M38.15,9.12,37.25,2V9.12h-1V0h1.67l.85,7.36L39.57,0h1.71V9.12H40.19V2l-.9,7.15Z"/><path class="cls-1" d="M45.56,6.76l-.23,2.36H44.18L45.27,0h1.66l1.12,9.12h-1.2l-.23-2.36Zm.53-5.57-.44,4.59h.88Z"/><path class="cls-1" d="M50.84.72,51.56,0h1.89l.72.72V2.65H53V1.22L52.77,1h-.54L52,1.22V7.89l.23.24h.54L53,7.89V5.4h-.57v-1h1.73v4l-.72.72H51.56l-.72-.72Z"/><path class="cls-1" d="M57.3,0h2.84V1H58.45V4h1.48V5H58.45V8.13h1.72v1H57.3Z"/><path class="cls-1" d="M67.46.72,68.18,0h1.89l.72.72V2.65H69.63V1.22L69.39,1h-.54l-.24.24V7.89l.24.24h.54l.24-.24V5.4h-.57v-1h1.73v4l-.72.72H68.18l-.72-.72Z"/><path class="cls-1" d="M74.94,6.76l-.23,2.36H73.56L74.65,0h1.66l1.11,9.12h-1.2L76,6.76Zm.53-5.57L75,5.78h.89Z"/><path class="cls-1" d="M80.33,9.12V0h1.15V8.13H83v1Z"/><path class="cls-1" d="M85.92,9.12V0h1.15V8.13h1.52v1Z"/><path class="cls-1" d="M91.51,0h2.84V1H92.66V4h1.48V5H92.66V8.13h1.72v1H91.51Z"/><path class="cls-1" d="M97.39,0h2.66l.72.72V4.51l-.63.64.72,4H99.74L99,5.23h-.49V9.12H97.39Zm2.23,4.05V1.2L99.38,1h-.84V4.29h.84Z"/><path class="cls-1" d="M105,9.12v-3L103.58,0h1.24l.72,4.47L106.26,0h1.23L106.1,6.13v3Z"/></g></g></svg>